<svg width="160" height="258" viewBox="0 0 160 258" fill="none" xmlns="http://www.w3.org/2000/svg">
<path d="M62.5835 109.994C44.2783 99.3376 26.3496 88.7585 8.27555 78.434C4.2027 76.1075 4.06836 74.236 7.09464 70.9009C16.0471 61.0353 24.8382 51.0206 33.5557 40.9459C35.5689 38.6193 38.2795 37.8984 40.8314 36.8092C55.5291 30.5358 70.2683 24.3596 85.0024 18.1717C86.3452 17.6077 87.674 16.7708 89.9466 17.6071C86.4553 28.7807 79.571 38.4279 75.1413 49.1238C75.5346 49.4934 75.928 49.8629 76.3213 50.2324C96.3758 33.6353 116.43 17.0382 137.018 0C138.324 4.44131 136.328 6.95867 135.159 9.50787C133.377 13.3945 133.721 16.0372 138.364 16.8032C141.026 17.2423 142.413 18.7141 143.217 21.1638C146.6 31.4598 148.834 42.0574 151.565 52.524C152.074 54.4739 151.243 56.0897 150.594 57.8023C144.162 74.7611 137.751 91.7276 131.355 108.7C131.017 109.596 130.87 110.564 131.374 112.049C140.093 102.728 148.813 93.4064 157.467 84.1541C160.308 85.8329 159.745 88.0236 159.766 89.8848C159.849 97.2131 159.742 104.544 159.819 111.872C159.85 114.823 158.687 117.368 157.645 120C152.683 132.539 147.796 145.108 142.788 157.629C142.027 159.532 141.788 161.888 139.282 163.075C136.866 160.078 136.189 156.142 133.589 153.277C129.342 148.597 123.87 145.746 118.575 142.638C100.048 131.764 81.4674 120.981 62.5835 109.994Z" fill="url(#paint0_linear_43_33)"/>
<path d="M76.2274 120.405C92.947 130.16 109.385 139.676 125.747 149.319C140.857 158.224 140.818 176.887 125.72 185.709C86.0222 208.906 46.3144 232.086 6.59252 255.241C4.92207 256.215 3.39501 257.72 1.12908 257.399C-0.402847 256.099 0.19005 254.315 0.17238 252.753C0.0970318 246.088 0.266374 239.418 0.106187 232.756C-0.112257 223.669 3.89342 217.187 11.6414 212.691C35.2731 198.98 58.8733 185.214 82.4721 171.446C84.3147 170.371 86.3843 169.563 87.6752 167.668C87.2245 165.498 85.2568 164.994 83.754 164.117C60.5886 150.597 37.4894 136.96 14.1653 123.72C4.50023 118.233 -0.589736 110.804 0.0544904 99.4478C0.46727 92.1713 0.131852 84.8524 0.131852 76C26.0929 91.1492 51.0027 105.685 76.2274 120.405Z" fill="#3E3939"/>
<defs>
<linearGradient id="paint0_linear_43_33" x1="82.4096" y1="0" x2="82.4096" y2="163.075" gradientUnits="userSpaceOnUse">
<stop stop-color="#F77156"/>
<stop offset="0.653923" stop-color="#EBB61B"/>
<stop offset="1" stop-color="#EABC17"/>
</linearGradient>
</defs>
</svg>
